<svg width="44" height="43" viewBox="0 0 44 43" fill="none" xmlns="http://www.w3.org/2000/svg">
<path d="M38.3369 21.8174H19.1396L15.2725 28.3627H34.6079L38.3369 21.8174Z" fill="#FBE38C"/>
<path d="M33.5181 5.32855C33.5181 5.32855 33.4415 5.32997 33.2941 5.32639C33.149 5.31994 32.9308 5.30992 32.6442 5.32925C32.0773 5.36003 31.2253 5.46529 30.2222 5.87766C29.2309 6.28931 28.0695 7.01595 27.146 8.23086C26.6871 8.83581 26.3041 9.56317 26.0714 10.3872C25.846 11.2126 25.7709 12.1283 25.8774 13.0712C25.9985 14.0112 26.2917 14.9827 26.8279 15.8754C27.0942 16.3207 27.4093 16.7531 27.7952 17.1347C28.1687 17.527 28.6071 17.875 29.1032 18.1391C29.5978 18.4019 30.1646 18.5673 30.7445 18.5443C31.3187 18.5257 31.9132 18.3267 32.3334 17.9158C32.758 17.507 32.9659 16.9063 32.9673 16.3078C32.9702 15.7043 32.7565 15.1037 32.3903 14.5982C31.652 13.5802 30.4586 12.895 29.1885 12.5256C27.9076 12.1591 26.4982 12.1498 25.1508 12.4712C24.4797 12.6423 23.8246 12.8943 23.2074 13.2301C22.5903 13.5673 22.0293 14.0069 21.5376 14.5152C21.4209 14.6483 21.2881 14.7686 21.1846 14.9125L20.8643 15.3378C20.6761 15.6399 20.4842 15.9413 20.3398 16.2692C20.0393 16.9156 19.827 17.6101 19.7227 18.3253C19.5315 19.7535 19.7073 21.2262 20.2968 22.5105C20.8636 23.7977 21.8323 24.9009 23.0411 25.5667C23.6437 25.8975 24.309 26.1108 24.9845 26.1474C25.6585 26.1882 26.3311 26.0171 26.9038 25.6956C27.4735 25.3742 27.9513 24.8902 28.2001 24.3075C28.4496 23.7254 28.4452 23.0618 28.23 22.484C28.0192 21.8998 27.623 21.4001 27.1613 21.0006C26.6966 20.6005 26.1539 20.3005 25.5885 20.1036C24.4417 19.7363 23.2206 19.7564 22.1278 20.0449C21.0335 20.3377 20.056 20.8918 19.2893 21.5977C18.5241 22.3093 17.9872 23.1828 17.6626 24.0734C17.0075 25.8696 17.1738 27.693 17.737 29.0855C18.3169 30.4908 19.239 31.4902 20.0794 32.1517C20.9285 32.819 21.701 33.1784 22.2306 33.3824C22.4984 33.4819 22.7048 33.5528 22.8463 33.5922C22.9857 33.6358 23.0572 33.6609 23.0572 33.6609C23.0572 33.6609 22.9828 33.6459 22.842 33.6065C22.6983 33.5728 22.4903 33.5055 22.2204 33.411C21.685 33.2142 20.9037 32.8612 20.0436 32.1976C19.1916 31.5389 18.2542 30.5352 17.6596 29.117C17.0826 27.7088 16.9046 25.8646 17.5641 24.0397C17.8902 23.1334 18.4329 22.2442 19.2113 21.5175C19.9904 20.7959 20.981 20.2296 22.0964 19.9289C23.2089 19.6325 24.4527 19.6089 25.6315 19.9833C26.2144 20.1845 26.7703 20.4916 27.2503 20.9026C27.7259 21.3135 28.1366 21.829 28.3591 22.4389C28.586 23.0439 28.5911 23.7455 28.3292 24.3612C28.0673 24.9768 27.5683 25.4808 26.9745 25.8159C26.3807 26.1524 25.6797 26.3306 24.9786 26.2877C24.2776 26.2512 23.5897 26.0307 22.9725 25.692C21.7331 25.0098 20.7425 23.8829 20.1625 22.5699C19.5614 21.2598 19.382 19.7621 19.5767 18.3059C19.6833 17.5779 19.8985 16.8705 20.2063 16.2097C20.3529 15.8754 20.5499 15.5676 20.7417 15.259L21.0693 14.8244C21.1758 14.6777 21.3115 14.5545 21.4311 14.4185C21.933 13.8995 22.5071 13.4506 23.1352 13.107C23.7648 12.7648 24.433 12.5092 25.1173 12.3352C26.4894 12.0087 27.9214 12.0202 29.2294 12.3953C30.5242 12.7748 31.7381 13.4685 32.5019 14.5238C32.8812 15.0471 33.1059 15.6785 33.1001 16.31C33.1001 16.9364 32.8791 17.5721 32.4246 18.0088C31.9745 18.447 31.3486 18.6532 30.7489 18.6711C30.142 18.694 29.5533 18.5193 29.0448 18.248C28.5364 17.9745 28.0885 17.6187 27.7099 17.2178C27.3181 16.829 26.9986 16.388 26.7294 15.9348C26.1867 15.0256 25.8934 14.0391 25.7731 13.0862C25.6673 12.1297 25.749 11.2019 25.9795 10.3664C26.2188 9.53096 26.6105 8.79501 27.0781 8.18577C28.0199 6.96155 29.1951 6.2356 30.1982 5.82896C31.2129 5.4216 32.0715 5.32567 32.642 5.30419C32.9301 5.28916 33.1475 5.3042 33.2949 5.31494C33.4422 5.32067 33.5181 5.32855 33.5181 5.32855Z" fill="#263238"/>
<path d="M4.67529 28.3623H26.493V42.6997H6.2337C5.37301 42.6997 4.67529 42.0019 4.67529 41.1413V28.3623Z" fill="#F9D040"/>
<path d="M26.4932 28.3623H34.5969V41.1413C34.5969 42.0019 33.8992 42.6997 33.0385 42.6997H26.4932V28.3623Z" fill="#FBE38C"/>
<path d="M0.467773 21.8174H22.1297L26.4932 28.3627H4.67548L0.467773 21.8174Z" fill="#FBE38C"/>
<path d="M35.1323 2.53798L34.4797 4.97411L36.1607 3.4066L42.8396 0.300275L35.1323 2.53798Z" fill="#FFC829"/>
<path d="M35.1323 2.53798L34.4797 4.97411L36.1607 3.4066L42.8396 0.300275L35.1323 2.53798Z" fill="#F9D040"/>
<path d="M36.4403 3.9368L34.4795 4.97468L36.1606 3.40717L36.4403 3.9368Z" fill="#F9D040"/>
<path d="M36.1608 3.40666L42.8396 0.300331L37.6659 6.31767L36.1608 3.40666Z" fill="#FFC519"/>
<path d="M35.1321 2.5386L32.103 0.939453L42.8394 0.300895L35.1321 2.5386Z" fill="#FFC519"/>
<g filter="url(#filter0_d_16429_5826)">
<path d="M26.5576 28.2969H34.3324L38.9602 34.9752H31.3706L26.5576 28.2969Z" fill="#F9D040"/>
</g>
<path d="M10.909 35.5312H6.54541V40.2065H10.909V35.5312Z" fill="#F4F5F7"/>
<line y1="42.5444" x2="39.5836" y2="42.5444" stroke="#FBE38C" stroke-width="0.311682"/>
<defs>
<filter id="filter0_d_16429_5826" x="24.4747" y="28.2969" width="16.5687" height="10.8446" filterUnits="userSpaceOnUse" color-interpolation-filters="sRGB">
<feFlood flood-opacity="0" result="BackgroundImageFix"/>
<feColorMatrix in="SourceAlpha" type="matrix" values="0 0 0 0 0 0 0 0 0 0 0 0 0 0 0 0 0 0 127 0" result="hardAlpha"/>
<feOffset dy="2.08295"/>
<feGaussianBlur stdDeviation="1.04147"/>
<feComposite in2="hardAlpha" operator="out"/>
<feColorMatrix type="matrix" values="0 0 0 0 0.231373 0 0 0 0 0.654902 0 0 0 0 0.94902 0 0 0 0.15 0"/>
<feBlend mode="normal" in2="BackgroundImageFix" result="effect1_dropShadow_16429_5826"/>
<feBlend mode="normal" in="SourceGraphic" in2="effect1_dropShadow_16429_5826" result="shape"/>
</filter>
</defs>
</svg>
