<svg width="245" height="149" viewBox="0 0 245 149" fill="none" xmlns="http://www.w3.org/2000/svg">
<path d="M218.379 0H210.591C199.467 0 200.58 11.9048 208.367 11.9048H218.379C226.166 11.9048 225.053 0 218.379 0Z" fill="#F4A8AD"/>
<path d="M235.663 52.3809H29.1547C17.6108 52.3809 20.1761 64.7618 29.1547 64.7618H77.8957C88.157 64.7618 88.157 74.2856 77.8957 74.2856H52.2426C35.568 74.2856 38.1333 90.4761 52.2426 90.4761H206.161C215.477 90.4761 216.072 74.2856 206.161 74.2856H168.964C159.524 74.2856 159.524 64.7618 168.964 64.7618H233.097C248.81 64.7618 246.429 52.3809 235.663 52.3809Z" fill="#F4A8AD"/>
<path d="M171 89.4995C171 121.256 145.256 147 113.5 147C81.7431 147 56 121.256 56 89.4995C56 57.7431 81.7431 32 113.5 32C145.256 32 171 57.7431 171 89.4995Z" fill="#FEC1BC"/>
<path d="M139.464 76.0883C141.417 74.1357 141.417 70.9699 139.464 69.0172L133.983 63.5354C132.03 61.5829 128.864 61.5828 126.912 63.5354L117.035 73.4114C115.082 75.364 111.917 75.3639 109.964 73.4114L100.088 63.5355C98.1357 61.5829 94.9699 61.5829 93.0172 63.5355L87.5355 69.0172C85.5829 70.9699 85.5829 74.1357 87.5355 76.0883L97.4114 85.9641C99.3639 87.9167 99.364 91.0825 97.4114 93.0351L87.5354 102.912C85.5828 104.864 85.5829 108.03 87.5354 109.983L93.0172 115.464C94.9699 117.417 98.1357 117.417 100.088 115.464L109.964 105.589C111.917 103.636 115.082 103.636 117.035 105.589L126.912 115.465C128.864 117.417 132.03 117.417 133.983 115.465L139.465 109.983C141.417 108.03 141.417 104.864 139.465 102.912L129.589 93.0351C127.636 91.0825 127.636 87.9167 129.589 85.9641L139.464 76.0883Z" fill="#E4556C"/>
<path d="M113.485 149C111.967 149 110.448 148.942 108.925 148.825C94.7854 147.742 81.4684 141.614 71.4271 131.573C60.1891 120.335 54 105.394 54 89.5C54 73.6072 60.1891 58.6651 71.4271 47.4271C82.665 36.1891 97.6072 30 113.5 30C129.394 30 144.335 36.1891 155.574 47.4271C165.614 57.4675 171.741 70.7855 172.826 84.9251C173.898 98.9113 170.003 112.852 161.859 124.181C161.11 125.223 159.657 125.46 158.615 124.711C157.573 123.962 157.336 122.509 158.085 121.467C173.826 99.5713 171.387 69.815 152.286 50.7137C141.926 40.3537 128.152 34.6484 113.5 34.6484C98.8483 34.6484 85.0746 40.3537 74.7146 50.7146C53.3272 72.101 53.3272 106.899 74.7146 128.286C93.8158 147.388 123.571 149.826 145.467 134.085C146.51 133.335 147.962 133.573 148.711 134.615C149.461 135.658 149.223 137.109 148.181 137.859C138.086 145.117 125.914 149 113.485 149Z" fill="#E4556C"/>
<path d="M153.5 132C152.842 132 152.197 131.732 151.732 131.267C151.268 130.802 151 130.157 151 129.5C151 128.84 151.268 128.197 151.732 127.732C152.197 127.268 152.84 127 153.5 127C154.157 127 154.802 127.267 155.268 127.732C155.732 128.197 156 128.84 156 129.5C156 130.157 155.732 130.802 155.268 131.267C154.802 131.732 154.157 132 153.5 132Z" fill="#E4556C"/>
<path d="M175.465 0H123.536C115.964 0 115.965 13.8031 123.536 13.8031H131.109C138.682 13.8031 140.846 24.4208 131.109 24.4208C121.372 24.4208 123.536 39.2857 131.109 39.2857H193.856C205.757 39.2857 204.675 24.4208 193.856 24.4208H154.91C144.091 24.4208 147.337 13.8031 154.91 13.8031H175.465C184.12 13.8031 184.12 0 175.465 0Z" fill="#F4A8AD"/>
<path d="M25.6726 126.786C16.744 126.786 15.5535 117.857 25.6726 117.857H75.6725C82.8154 117.857 82.2201 126.786 75.6725 126.786H63.7678C56.6249 126.786 56.6249 133.929 63.7678 133.929H97.1011C104.244 133.929 104.839 142.857 97.1011 142.857H4.244C-1.70838 142.857 -1.11314 133.929 4.244 133.929H25.6726C29.244 133.929 34.6011 135.119 34.6011 130.952C34.6011 126.786 34.6011 126.786 25.6726 126.786Z" fill="#F4A8AD"/>
</svg>
